<svg version="1.1" xmlns="http://www.w3.org/2000/svg" xmlns:xlink="http://www.w3.org/1999/xlink" width="360.18464" height="258.29617" viewBox="0,0,360.18464,258.29617"><defs><radialGradient cx="233.36599" cy="178.69701" r="52.84704" gradientUnits="userSpaceOnUse" id="color-1"><stop offset="0" stop-color="#fc4b4a"/><stop offset="1" stop-color="#fc4b4a" stop-opacity="0"/></radialGradient><radialGradient cx="238.1343" cy="263.85093" r="51.34891" gradientUnits="userSpaceOnUse" id="color-2"><stop offset="0" stop-color="#3f65ff"/><stop offset="1" stop-color="#3f65ff" stop-opacity="0"/></radialGradient><radialGradient cx="234.06459" cy="235.71754" r="107.97204" gradientUnits="userSpaceOnUse" id="color-3"><stop offset="0" stop-color="#fc4b4a"/><stop offset="1" stop-color="#fc4b4a" stop-opacity="0"/></radialGradient><radialGradient cx="236.26433" cy="202.28272" r="104.13058" gradientUnits="userSpaceOnUse" id="color-4"><stop offset="0" stop-color="#3f65ff"/><stop offset="1" stop-color="#3f65ff" stop-opacity="0"/></radialGradient></defs><g transform="translate(-74.02798,-57.79031)"><g data-paper-data="{&quot;isPaintingLayer&quot;:true}" fill-rule="nonzero" stroke-linejoin="miter" stroke-miterlimit="10" stroke-dasharray="" stroke-dashoffset="0" style="mix-blend-mode: normal"><path d="M224.13135,253.87c-29.13056,1.808 -53.08485,-66.85404 -53.36272,-75.33921c-0.15841,-4.83731 10.24686,13.73075 27.9942,13.28907c4.80624,-0.11961 6.96275,7.60692 10.73662,7.91894c6.73479,0.55684 14.52406,-6.11403 22.55658,-6.494c29.15402,-1.37909 76.79725,-27.74009 77.07511,-19.25493c0.27786,8.48516 -20.88998,75.90112 -84.99979,79.88012z" data-paper-data="{&quot;index&quot;:null}" fill="url(#color-1)" stroke="none" stroke-width="0" stroke-linecap="butt"/><path d="M236.50128,247.9378c-28.32179,1.45655 -69.6224,24.91431 -69.8376,17.10964c-0.2152,-7.80466 2.79036,-51.26696 72.00517,-56.53672c64.86608,-4.93867 72.85985,42.71696 73.07504,50.52162c0.2152,7.80466 -46.92082,-12.55109 -75.24261,-11.09454z" data-paper-data="{&quot;index&quot;:null}" fill="url(#color-2)" stroke="none" stroke-width="0" stroke-linecap="butt"/><path d="M388.62136,223.55438c1.69935,20.27751 -101.72738,-27.7605 -161.0848,-22.0517c-25.5183,2.45427 -39.81669,10.3233 -66.98521,13.65788c-36.02744,4.42189 -52.13233,51.8164 -53.10111,40.25637c-1.05078,-12.53846 -50.13513,-116.19981 -27.43434,-168.97513c14.01149,-32.57424 92.6477,-24.97628 115.32738,-26.76278c62.68641,-4.93785 146.32188,-2.43665 178.04972,35.27905c34.46434,40.96864 14.34356,118.0384 15.22836,128.59631z" fill="url(#color-3)" stroke="none" stroke-width="0" stroke-linecap="butt"/><path d="M385.60524,193.60926c0.9622,10.01147 74.06534,80.94554 39.18211,112.69992c-20.03145,18.23473 -125.56796,4.93185 -173.63594,7.21158c-55.8044,2.64664 -131.01148,0.02844 -154.61559,-16.47005c-35.87061,-25.07238 -3.4902,-69.83343 -4.40377,-79.33896c-0.80628,-8.38921 26.24357,14.97642 58.0574,0.32247c16.68358,-7.68472 132.71658,-22.75966 176.31584,-6.7713c30.70902,11.26136 58.49612,-23.93633 59.09994,-17.65366z" fill="url(#color-4)" stroke="none" stroke-width="0" stroke-linecap="butt"/><path d="M361.97397,147.47241c0,0 18.82585,12.70898 -8.31135,19.11827c-44.56395,10.52516 -258.94461,28.73637 -258.94461,28.73637" fill="none" stroke="#752222" stroke-width="2" stroke-linecap="round"/><g fill="#2728ff" stroke="none" stroke-width="0" stroke-linecap="butt"><path d="M227.1196,250.47499c2.37685,14.32968 -4.16617,18.92848 -12.03307,20.88511c-7.86689,1.95664 -11.91948,-0.57922 -14.29633,-14.9089c-0.00051,-0.00307 -1.22183,-20.21209 6.65381,-25.12142c13.09275,-8.16144 21.78683,12.64165 18.73298,15.64343c-0.28676,0.28187 -11.43504,-8.02033 -13.8578,-6.58652c-4.32865,2.56174 -3.71748,10.18906 -3.64839,12.1984c0.17882,5.20105 4.32805,9.39727 6.72695,8.7712c3.99625,-1.86654 -3.38288,-2.66486 -4.23611,-9.43368c-0.53923,-4.27781 0.7778,-10.18992 5.10901,-7.7307c3.3381,1.89535 10.84847,6.28025 10.84894,6.28308z"/><path d="M317.82326,245.96817c-4.11403,2.71571 -13.88963,-1.19502 -13.8505,-4.35455c0.02936,-2.37071 9.00778,-1.712 8.39939,-1.7877c-0.58821,-0.07319 0.19738,-6.64714 -4.70252,-7.31628c-1.9204,-0.26225 -3.77247,1.59913 -3.44942,5.40203c0.1248,1.46919 1.2828,5.20333 4.87525,6.71964c1.04447,0.44085 15.72107,7.89495 12.70319,13.15707c-0.12682,0.22114 -1.2751,2.43779 -5.19401,0.82037c-3.31466,-1.36803 -6.5872,-4.84904 -7.00734,-4.7818c-0.7269,0.11634 -1.77324,5.25428 -3.34932,7.12297c-2.57371,3.05154 -4.92791,1.0618 -5.09381,0.98743c-1.44313,-1.88343 -7.85395,-23.96443 -0.00969,-33.05507c3.74931,-4.34504 16.07488,0.02799 17.88232,6.56202c0.65961,2.38454 -0.55479,10.08266 -1.20355,10.52388z" data-paper-data="{&quot;index&quot;:null}"/><g><path d="M147.51116,242.70846c0.64309,-7.56703 32.79967,-16.38008 32.62621,-1.94965c-0.10103,8.4051 -33.34977,10.4634 -32.62621,1.94965z" data-paper-data="{&quot;index&quot;:null}"/><path d="M164.9504,277.67212c-10.46573,-1.91798 -24.88612,-38.46411 -14.42039,-36.54613c10.46573,1.91798 24.88612,38.46411 14.42039,36.54613z" data-paper-data="{&quot;index&quot;:null}"/><path d="M163.69413,261.70515c-3.95891,10.01411 -20.15755,-9.11926 -16.19863,-19.13338c3.95892,-10.01411 20.15754,9.11926 16.19863,19.13338z" data-paper-data="{&quot;index&quot;:null}"/><path d="M153.03859,257.52727c-2.17029,-8.13223 22.18925,-9.51747 24.35954,-1.38524c2.17029,8.13223 -22.18925,9.51748 -24.35954,1.38525z" data-paper-data="{&quot;index&quot;:null}"/></g><g><path d="M187.04801,273.59125c-9.26276,-9.99268 -4.1101,-38.80979 5.15266,-28.81711c9.26276,9.99268 4.1101,38.80979 -5.15266,28.81711z" data-paper-data="{&quot;index&quot;:null}"/><path d="M183.60949,238.94015c-6.55372,-7.07016 3.59163,-14.41438 8.32526,-9.55215c6.03154,6.19541 -1.77154,16.62231 -8.32526,9.55215z" data-paper-data="{&quot;index&quot;:null}"/></g><g><path d="M237.65377,229.53708c4.0104,-0.18049 5.91413,9.45373 6.62602,19.48074c0.64063,9.02326 0.70443,18.4811 -6.20151,19.38941c-8.49228,1.11696 -8.99712,-38.48432 -0.42451,-38.87015z" data-paper-data="{&quot;index&quot;:null}"/><path d="M246.42934,228.01335c14.67336,0.97406 9.70697,38.66788 2.08137,38.8167c-4.06367,0.07931 -1.14921,-8.54756 -1.85069,-17.80586c-0.77956,-10.28881 -4.72927,-21.30947 -0.23069,-21.01084z" data-paper-data="{&quot;index&quot;:null}"/><path d="M243.45787,244.52322c10.63837,0.32589 8.18895,6.04574 2.68014,5.97681c-6.19804,-0.07754 -8.87652,-6.16663 -2.68014,-5.97681z" data-paper-data="{&quot;index&quot;:null}"/></g><g><path d="M253.13269,232.35341c1.28789,-11.25843 24.88415,-6.87013 24.62886,-1.00929c-0.28724,6.59411 -25.379,7.56684 -24.62886,1.00929z" data-paper-data="{&quot;index&quot;:null}"/><path d="M265.63731,228.17608c8.49735,3.07722 3.8456,36.70057 -0.60096,35.69854c-5.00289,-1.12739 -4.34837,-37.4909 0.60096,-35.69854z" data-paper-data="{&quot;index&quot;:null}"/></g><g><path d="M296.11112,255.88743c1.32945,5.53406 -8.12767,8.07477 -14.66357,6.43734c-1.3095,-0.32807 -5.4418,-3.35159 -5.75904,-4.67221c-1.91306,-7.96346 18.50955,-9.72859 20.42261,-1.76513z"/><path d="M274.8304,233.91161c0.61382,-5.18313 21.07828,-10.26933 20.56983,-0.35317c-0.29615,5.77573 -21.26044,6.18476 -20.56983,0.35317z" data-paper-data="{&quot;index&quot;:null}"/><path d="M275.39667,256.38005c-1.31611,-7.17967 9.95362,-18.18475 11.26973,-11.00508c1.31611,7.17967 -9.95362,18.18475 -11.26973,11.00508z" data-paper-data="{&quot;index&quot;:null}"/><path d="M287.20439,246.47078c-0.93775,7.33944 -13.68239,-2.83327 -12.74464,-10.17271c0.93775,-7.33944 13.68239,2.83326 12.74464,10.17271z" data-paper-data="{&quot;index&quot;:null}"/><path d="M279.81622,246.27502c-1.80814,-5.5934 13.38949,-8.07411 15.19763,-2.4807c1.80814,5.5934 -13.38949,8.07411 -15.19763,2.48071z" data-paper-data="{&quot;index&quot;:null}"/></g></g><g fill="#b42e17" stroke="none" stroke-width="0" stroke-linecap="butt"><path d="M276.8231,193.72025c-3.08564,16.03439 -15.85742,27.05642 -28.52657,24.61838c-6.10407,-1.17466 -16.80337,-13.71142 -20.79188,-29.66415c-2.82767,-11.30979 -4.69915,-28.95915 1.81543,-37.35618c3.11905,-4.02032 13.66435,-2.25046 15.72179,-0.93701c0.85891,0.54832 4.69362,2.12821 6.07606,6.4768c0.39257,1.23487 0.38635,11.87512 0.81616,18.81643c0.56707,9.15785 1.44617,16.40515 1.8055,17.19948c0.06993,0.15458 2.97983,-6.6618 2.16951,-14.28012c-1.11367,-10.47036 -6.28702,-25.75081 -4.22938,-27.00179c26.39749,-17.55672 25.34893,41.06 25.14337,42.12818z"/><g><path d="M235.35525,185.92471c0.6342,20.60233 -12.16419,37.85216 -28.58599,38.52857c-16.42181,0.67642 -30.24844,-15.47672 -30.88263,-36.07905c-0.0011,-0.03565 8.46804,-0.40297 19.01451,-0.84288c1.75245,-0.07309 0.55609,13.08742 10.06216,12.6188c12.79864,-0.63094 9.39406,-12.64049 10.92991,-12.70245c10.95249,-0.44188 19.46123,-1.54942 19.46205,-1.52298z"/><path d="M235.13648,186.17777c0.01531,0.49748 -8.45724,1.40027 -19.01089,1.94883c-1.69696,0.0882 0.06105,-13.79219 -11.59687,-12.18491c-9.18485,1.26632 -7.86837,12.96904 -9.4051,13.01662c-11.13924,0.34486 -19.44064,0.16072 -19.45578,-0.33101c-0.6342,-20.60233 12.16419,-37.85216 28.586,-38.52857c16.42181,-0.67641 30.24844,15.47672 30.88263,36.07905z"/></g><g><path d="M316.80397,197.61716c0.26186,7.21116 -9.5296,13.71252 -21.86981,14.52117c-12.34021,0.80865 -22.55621,-4.38161 -22.81806,-11.59278c-0.26186,-7.21116 9.52959,-13.71251 21.86981,-14.52117c12.34022,-0.80865 22.55621,4.38161 22.81807,11.59277z"/><path d="M313.96941,158.33277c0.26186,7.21117 -9.52959,13.71252 -21.86982,14.52117c-12.34022,0.80865 -22.55621,-4.3816 -22.81806,-11.59277c-0.26186,-7.21117 9.52959,-13.71252 21.86981,-14.52117c12.34022,-0.80865 22.55621,4.3816 22.81807,11.59277z"/><path d="M316.72747,197.25525c0.26186,7.21117 -13.55629,-10.2889 -25.8965,-9.48025c-12.34022,0.80865 -21.43768,-19.7533 -21.69954,-26.96447c-0.13603,-3.74615 11.36852,11.21164 23.86974,9.23799c16.61755,-2.62352 23.60614,23.89763 23.7263,27.20673z"/></g><g><path d="M352.11919,201.62816c0.29724,10.43195 -19.12216,10.67592 -31.14184,4.81599c-2.40821,-1.17407 -9.18659,-8.41129 -9.25752,-10.90072c-0.42771,-15.01148 39.97164,-8.92674 40.39936,6.08474z"/><path d="M309.16457,161.40834c-1.4518,-9.42144 35.17295,-29.67637 39.22607,-12.02074c2.36077,10.28364 -37.59264,22.62091 -39.22607,12.02074z" data-paper-data="{&quot;index&quot;:null}"/><path d="M311.96487,195.89186c-2.62466,-13.09529 19.85008,-33.1679 22.47474,-20.07261c2.62466,13.09529 -19.85008,33.1679 -22.47474,20.07261z" data-paper-data="{&quot;index&quot;:null}"/><path d="M334.52118,179.80063c-1.87012,13.3867 -27.28622,-5.16771 -25.4161,-18.55442c1.87012,-13.38671 27.28623,5.16771 25.41611,18.55441z" data-paper-data="{&quot;index&quot;:null}"/><path d="M319.78726,178.76394c-3.60589,-12.7253 26.70211,-18.36906 30.308,-5.64374c3.60589,12.72531 -26.70211,18.36906 -30.308,5.64375z" data-paper-data="{&quot;index&quot;:null}"/></g><g><path d="M111.24008,232.26835c-13.33521,0 -12.04006,-37.38994 -3.56879,-60.20291c1.69727,-4.57071 11.49231,-17.22017 14.67455,-17.22017c19.18924,0 8.08347,77.42307 -11.10577,77.42307z"/><path d="M166.11179,151.79911c12.14135,-2.2776 34.95587,69.32492 12.09293,76.15774c-13.31667,3.97983 -25.75331,-73.59518 -12.09293,-76.15774z" data-paper-data="{&quot;index&quot;:null}"/><path d="M121.88098,155.29779c16.92602,-4.33355 40.67843,40.02443 23.75241,44.35798c-16.92602,4.33355 -40.67843,-40.02443 -23.75241,-44.35798z" data-paper-data="{&quot;index&quot;:null}"/><path d="M140.54662,199.59442c-16.92602,-4.33355 8.85093,-52.23448 25.77696,-47.90092c16.92603,4.33355 -8.85093,52.23448 -25.77695,47.90093z" data-paper-data="{&quot;index&quot;:null}"/></g></g><path d="M116.1006,267.109c0,0 -12.66311,15.35425 7.70604,15.31234c18.67177,-0.03842 71.1431,-2.1981 116.90362,-6.997c30.04198,-3.15049 73.89137,-6.78035 92.67584,-18.60076c2.89806,-1.82364 9.94047,-21.13775 5.36017,-27.69379c-7.62887,-10.91963 -26.09717,-12.80268 -31.87048,-13.26386" fill="none" stroke="#2a4291" stroke-width="2.5" stroke-linecap="round"/><path d="M282.97695,188.72025c-3.08564,16.03439 -15.85742,27.05642 -28.52657,24.61838c-6.10407,-1.17466 -16.80337,-13.71142 -20.79188,-29.66415c-2.82767,-11.30979 -4.69915,-28.95915 1.81543,-37.35618c3.11905,-4.02032 13.66435,-2.25046 15.72179,-0.93701c0.85891,0.54832 4.69362,2.12821 6.07606,6.4768c0.39257,1.23487 0.38635,11.87512 0.81616,18.81643c0.56707,9.15785 1.44617,16.40515 1.8055,17.19948c0.06993,0.15458 2.97983,-6.6618 2.16951,-14.28012c-1.11367,-10.47036 -6.28702,-25.75081 -4.22938,-27.00179c26.39749,-17.55672 25.34893,41.06 25.14337,42.12818z" fill="#fc4b4a" stroke="none" stroke-width="0" stroke-linecap="butt"/><path d="M230.96575,247.01345c2.37685,14.32968 -4.16617,18.92848 -12.03307,20.88511c-7.86689,1.95664 -11.91948,-0.57922 -14.29633,-14.9089c-0.00051,-0.00307 -1.22183,-20.21209 6.65381,-25.12142c13.09275,-8.16144 21.78683,12.64165 18.73298,15.64343c-0.28676,0.28187 -11.43504,-8.02033 -13.8578,-6.58652c-4.32865,2.56174 -3.71748,10.18906 -3.64839,12.1984c0.17882,5.20105 4.32805,9.39727 6.72695,8.7712c3.99625,-1.86654 -3.38288,-2.66486 -4.23611,-9.43368c-0.53923,-4.27781 0.7778,-10.18992 5.10901,-7.7307c3.3381,1.89535 10.84847,6.28025 10.84894,6.28308z" fill="#3f65ff" stroke="none" stroke-width="0" stroke-linecap="butt"/><path d="M232.74407,154.67989c2.11132,1.70914 8.1431,9.64103 9.80165,18.20959c1.92638,9.95224 -0.57927,22.5522 -2.74144,25.63702c-0.65769,1.71238 -2.88799,-8.08259 -5.06749,-19.5109c-2.7935,-14.64783 -4.03377,-25.84393 -1.99272,-24.33571z" data-paper-data="{&quot;index&quot;:null}" fill="#b42e17" stroke="none" stroke-width="0" stroke-linecap="butt"/><path d="M321.66941,242.50663c-4.11403,2.71571 -13.88963,-1.19502 -13.8505,-4.35455c0.02936,-2.37071 9.00778,-1.712 8.39939,-1.7877c-0.58821,-0.07319 0.19738,-6.64714 -4.70252,-7.31628c-1.9204,-0.26225 -3.77247,1.59913 -3.44942,5.40203c0.1248,1.46919 1.2828,5.20333 4.87525,6.71964c1.04447,0.44085 15.72107,7.89495 12.70319,13.15707c-0.12682,0.22114 -1.2751,2.43779 -5.19401,0.82037c-3.31466,-1.36803 -6.5872,-4.84904 -7.00734,-4.7818c-0.7269,0.11634 -1.77324,5.25428 -3.34932,7.12297c-2.57371,3.05154 -4.92791,1.0618 -5.09381,0.98743c-1.44313,-1.88343 -7.85395,-23.96443 -0.00969,-33.05507c3.74931,-4.34504 16.07488,0.02799 17.88232,6.56202c0.65961,2.38454 -0.55479,10.08266 -1.20355,10.52388z" data-paper-data="{&quot;index&quot;:null}" fill="#3f65ff" stroke="none" stroke-width="0" stroke-linecap="butt"/><g fill="#fc4b4a" stroke="none" stroke-width="0" stroke-linecap="butt"><path d="M241.70141,181.11702c0.6342,20.60233 -12.16419,37.85216 -28.58599,38.52857c-16.42181,0.67642 -30.24844,-15.47672 -30.88263,-36.07905c-0.0011,-0.03565 8.46804,-0.40297 19.01451,-0.84288c1.75245,-0.07309 0.55609,13.08742 10.06216,12.6188c12.79864,-0.63094 9.39406,-12.64049 10.92991,-12.70245c10.95249,-0.44188 19.46123,-1.54942 19.46205,-1.52298z"/><path d="M222.47175,183.31891c-1.69696,0.0882 0.06105,-13.79219 -11.59687,-12.18491c-9.18485,1.26632 -7.86837,12.96904 -9.4051,13.01662c-11.13924,0.34486 -19.44064,0.16072 -19.45578,-0.33101c-0.6342,-20.60233 12.16419,-37.85216 28.586,-38.52857c16.42181,-0.67641 30.44075,15.47672 31.07494,36.07905c0,0 -8.64954,1.40026 -19.20319,1.94882z"/></g><g fill="#fc4b4a" stroke="none" stroke-width="0" stroke-linecap="butt"><path d="M322.95782,192.61716c0.26186,7.21116 -9.5296,13.71252 -21.86981,14.52117c-12.34021,0.80865 -22.55621,-4.38161 -22.81806,-11.59278c-0.26186,-7.21116 9.52959,-13.71251 21.86981,-14.52117c12.34022,-0.80865 22.55621,4.38161 22.81807,11.59277z"/><path d="M320.12326,153.33277c0.26186,7.21117 -9.52959,13.71252 -21.86982,14.52117c-12.34022,0.80865 -22.55621,-4.3816 -22.81806,-11.59277c-0.26186,-7.21117 9.52959,-13.71252 21.86981,-14.52117c12.34022,-0.80865 22.55621,4.3816 22.81807,11.59277z"/><path d="M322.88132,192.25525c0.26186,7.21117 -8.80629,-11.2889 -21.1465,-10.48025c-12.34022,0.80865 -26.18768,-18.7533 -26.44954,-25.96447c-0.13603,-3.74615 8.11852,11.71164 20.61974,9.73799c16.61755,-2.62352 26.85614,23.39763 26.9763,26.70673z"/></g><path d="M277.65659,150.72724c0.63187,0.64174 4.06439,4.35876 5.19664,11.74886c0.44107,2.87886 -0.26103,8.5996 -0.64304,8.62145c-0.33741,0.15575 -0.27602,-4.14465 -1.09238,-8.70272c-1.12119,-6.26001 -4.49975,-12.67843 -3.46121,-11.66759z" data-paper-data="{&quot;index&quot;:null}" fill="#b42e17" stroke="none" stroke-width="0" stroke-linecap="butt"/><g fill="#fc4b4a" stroke="none" stroke-width="0" stroke-linecap="butt"><path d="M358.27304,196.62816c0.29724,10.43195 -19.12216,10.67592 -31.14184,4.81599c-2.40821,-1.17407 -9.18659,-8.41129 -9.25752,-10.90072c-0.42771,-15.01148 39.97164,-8.92674 40.39936,6.08474z"/><path d="M315.31842,156.40834c-1.4518,-9.42144 35.17295,-29.67637 39.22607,-12.02074c2.36077,10.28364 -37.59264,22.62091 -39.22607,12.02074z" data-paper-data="{&quot;index&quot;:null}"/><path d="M318.11872,190.89186c-2.62466,-13.09529 19.85008,-33.1679 22.47474,-20.07261c2.62466,13.09529 -19.85008,33.1679 -22.47474,20.07261z" data-paper-data="{&quot;index&quot;:null}"/><path d="M340.67503,174.80063c-1.87012,13.3867 -27.28622,-5.16771 -25.4161,-18.55442c1.87012,-13.38671 27.28623,5.16771 25.41611,18.55441z" data-paper-data="{&quot;index&quot;:null}"/><path d="M325.94111,173.76394c-3.60589,-12.7253 26.70211,-18.36906 30.308,-5.64374c3.60589,12.72531 -26.70211,18.36906 -30.308,5.64375z" data-paper-data="{&quot;index&quot;:null}"/></g><path d="M319.31415,149.53816c0.05324,0.15479 3.40805,1.1547 1.27346,7.0513c-1.87905,5.1907 -5.14575,5.70286 -5.21524,5.63213c-0.12641,-0.09006 3.31315,-3.15525 4.29546,-6.08626c1.19673,-3.57079 -0.56462,-7.18066 -0.35368,-6.59717z" data-paper-data="{&quot;index&quot;:null}" fill="#b42e17" stroke="none" stroke-width="0" stroke-linecap="butt"/><g fill="#3f65ff" stroke="none" stroke-width="0" stroke-linecap="butt"><path d="M151.35731,239.24692c0.64309,-7.56703 32.79967,-16.38008 32.62621,-1.94965c-0.10103,8.4051 -33.34977,10.4634 -32.62621,1.94965z" data-paper-data="{&quot;index&quot;:null}"/><path d="M168.79656,274.21058c-10.46573,-1.91798 -24.88612,-38.46411 -14.42039,-36.54613c10.46573,1.91798 24.88612,38.46411 14.42039,36.54613z" data-paper-data="{&quot;index&quot;:null}"/><path d="M167.54029,258.24361c-3.95891,10.01411 -20.15755,-9.11926 -16.19863,-19.13338c3.95892,-10.01411 20.15754,9.11926 16.19863,19.13338z" data-paper-data="{&quot;index&quot;:null}"/><path d="M156.88475,254.06573c-2.17029,-8.13223 22.18925,-9.51747 24.35954,-1.38524c2.17029,8.13223 -22.18925,9.51748 -24.35954,1.38525z" data-paper-data="{&quot;index&quot;:null}"/></g><g fill="#3f65ff" stroke="none" stroke-width="0" stroke-linecap="butt"><path d="M190.89416,270.12971c-9.26276,-9.99268 -4.1101,-38.80979 5.15266,-28.81711c9.26276,9.99268 4.1101,38.80979 -5.15266,28.81711z" data-paper-data="{&quot;index&quot;:null}"/><path d="M187.45564,235.47861c-6.55372,-7.07016 3.59163,-14.41438 8.32526,-9.55215c6.03154,6.19541 -1.77154,16.62231 -8.32526,9.55215z" data-paper-data="{&quot;index&quot;:null}"/></g><g fill="#3f65ff" stroke="none" stroke-width="0" stroke-linecap="butt"><path d="M241.49992,226.07554c4.0104,-0.18049 5.91413,9.45373 6.62602,19.48074c0.64063,9.02326 0.70443,18.4811 -6.20151,19.38941c-8.49228,1.11696 -8.99712,-38.48432 -0.42451,-38.87015z" data-paper-data="{&quot;index&quot;:null}"/><path d="M250.27549,224.55181c14.67336,0.97406 9.70697,38.66788 2.08137,38.8167c-4.06367,0.07931 -1.14921,-8.54756 -1.85069,-17.80586c-0.77956,-10.28881 -4.72927,-21.30947 -0.23069,-21.01084z" data-paper-data="{&quot;index&quot;:null}"/><path d="M247.30402,241.06168c10.63837,0.32589 8.18895,6.04574 2.68014,5.97681c-6.19804,-0.07754 -8.87652,-6.16663 -2.68014,-5.97681z" data-paper-data="{&quot;index&quot;:null}"/></g><g fill="#3f65ff" stroke="none" stroke-width="0" stroke-linecap="butt"><path d="M256.97884,228.89187c1.28789,-11.25843 24.88415,-6.87013 24.62886,-1.00929c-0.28724,6.59411 -25.379,7.56684 -24.62886,1.00929z" data-paper-data="{&quot;index&quot;:null}"/><path d="M269.48346,224.71454c8.49735,3.07722 3.8456,36.70057 -0.60096,35.69854c-5.00289,-1.12739 -4.34837,-37.4909 0.60096,-35.69854z" data-paper-data="{&quot;index&quot;:null}"/></g><path d="M186.78253,163.6348c7.19091,15.45669 14.84903,36.0299 6.48328,49.67053c-0.65769,1.957 -2.88799,-8.79764 -5.06749,-21.85847c-2.7935,-16.74027 -3.64915,-32.61263 -1.41579,-27.81206z" data-paper-data="{&quot;index&quot;:null}" fill="#b42e17" stroke="none" stroke-width="0" stroke-linecap="butt"/><g fill="#3f65ff" stroke="none" stroke-width="0" stroke-linecap="butt"><path d="M299.95727,252.42589c1.32945,5.53406 -8.12767,8.07477 -14.66357,6.43734c-1.3095,-0.32807 -5.4418,-3.35159 -5.75904,-4.67221c-1.91306,-7.96346 18.50955,-9.72859 20.42261,-1.76513z"/><path d="M278.67655,230.45007c0.61382,-5.18313 21.07828,-10.26933 20.56983,-0.35317c-0.29615,5.77573 -21.26044,6.18476 -20.56983,0.35317z" data-paper-data="{&quot;index&quot;:null}"/><path d="M279.24282,252.91851c-1.31611,-7.17967 9.95362,-18.18475 11.26973,-11.00508c1.31611,7.17967 -9.95362,18.18475 -11.26973,11.00508z" data-paper-data="{&quot;index&quot;:null}"/><path d="M291.05054,243.00924c-0.93775,7.33944 -13.68239,-2.83327 -12.74464,-10.17271c0.93775,-7.33944 13.68239,2.83326 12.74464,10.17271z" data-paper-data="{&quot;index&quot;:null}"/><path d="M283.66237,242.81348c-1.80814,-5.5934 13.38949,-8.07411 15.19763,-2.4807c1.80814,5.5934 -13.38949,8.07411 -15.19763,2.48071z" data-paper-data="{&quot;index&quot;:null}"/></g><g fill="#fd4b4b" stroke="none" stroke-width="0" stroke-linecap="butt"><path d="M117.58624,227.26835c-13.33521,0 -12.04006,-37.38994 -3.56879,-60.20291c1.69727,-4.57071 11.49231,-17.22017 14.67455,-17.22017c19.18924,0 8.08347,77.42307 -11.10577,77.42307z"/><path d="M172.45795,146.79911c12.14135,-2.2776 34.95587,69.32492 12.09293,76.15774c-13.31667,3.97983 -25.75331,-73.59518 -12.09293,-76.15774z" data-paper-data="{&quot;index&quot;:null}"/><path d="M128.22714,150.29779c16.92602,-4.33355 40.67843,40.02443 23.75241,44.35798c-16.92602,4.33355 -40.67843,-40.02443 -23.75241,-44.35798z" data-paper-data="{&quot;index&quot;:null}"/><path d="M146.89278,194.59442c-16.92602,-4.33355 8.85093,-52.23448 25.77696,-47.90092c16.92603,4.33355 -8.85093,52.23448 -25.77695,47.90093z" data-paper-data="{&quot;index&quot;:null}"/></g><path d="M106.29923,243.78105l43.07541,-40.38733l-0.91966,48.81069z" data-paper-data="{&quot;index&quot;:null}" fill="#fcfcfc" stroke="#000000" stroke-width="3" stroke-linecap="butt"/><path d="M346.24614,138.51506c4.19973,-0.4082 3.51131,4.48552 3.76528,4.91169c0.31086,0.5216 -9.7264,3.621 -13.62757,4.15178c-5.82603,0.79266 -6.40644,-1.14715 -6.25338,-1.86644c0.14409,-0.6771 10.71045,-6.67166 16.11566,-7.19703z" data-paper-data="{&quot;index&quot;:null}" fill="#fcb5b5" stroke="none" stroke-width="0" stroke-linecap="butt"/><path d="M115.5868,267.1458l10.39782,-19.00442" data-paper-data="{&quot;index&quot;:null}" fill="none" stroke="#000000" stroke-width="3" stroke-linecap="round"/><path d="M346.85429,146.76971l-7.95747,-19.65597l23.74806,9.68889z" data-paper-data="{&quot;index&quot;:null}" fill="#fcfcfc" stroke="#000000" stroke-width="2" stroke-linecap="butt"/><path d="M362.50814,147.72312l-7.17062,-6.09303" data-paper-data="{&quot;index&quot;:null}" fill="none" stroke="#000000" stroke-width="2" stroke-linecap="round"/><path d="M140.50365,195.712c0,0 -46.74765,10.63756 -57.70515,3.63953c-3.75292,-2.39681 13.05573,-4.1745 13.05573,-4.1745" fill="none" stroke="#752222" stroke-width="2" stroke-linecap="round"/><path d="M191.3469,195.05511c-2.84654,9.01378 -19.2329,-43.13709 -16.08504,-43.90157c3.14786,-0.76448 19.04657,34.5237 16.08504,43.90157z" fill="#fcb5b5" stroke="none" stroke-width="0" stroke-linecap="butt"/><path d="M237.39347,179.61131c-1.81925,4.04065 -3.75692,-6.15284 -8.53995,-14.05725c-5.4198,-8.95675 -13.53897,-16.07187 -11.8308,-16.27971c1.71139,-0.20824 10.90778,3.62243 16.28968,10.69528c4.73049,6.21678 5.96975,15.44681 4.08106,19.64168z" fill="#fcb5b5" stroke="none" stroke-width="0" stroke-linecap="butt"/><path d="M274.75095,182.80461c-2.04195,3.07591 -0.77002,-7.10809 -1.73345,-16.22357c-1.0917,-10.32905 -4.22562,-19.95078 -3.16096,-19.50932c1.06667,0.4423 5.62172,7.41465 7.13881,15.98047c1.33346,7.52906 -0.1245,16.5591 -2.24439,19.75241z" fill="#fcb5b5" stroke="none" stroke-width="0" stroke-linecap="butt"/><path d="M283.04142,187.26543c0.05324,0.15479 1.49896,2.88197 -0.63563,8.77857c-1.87905,5.1907 -4.78211,6.33922 -4.85161,6.26849c-0.12641,-0.09005 2.58588,-4.42797 3.56819,-7.35898c1.19673,-3.57079 1.7081,-8.27157 1.91905,-7.68808z" data-paper-data="{&quot;index&quot;:null}" fill="#b42e17" stroke="none" stroke-width="0" stroke-linecap="butt"/><path d="M322.33912,190.20055c-0.5077,-3.85957 -3.43232,-8.19492 -3.29253,-8.29409c0.08023,-0.08158 3.24012,0.97657 4.27758,7.829c1.17855,7.78432 -2.3097,8.64352 -2.3872,8.83431c-0.30229,0.71795 2.02067,-3.66718 1.40215,-8.36922z" data-paper-data="{&quot;index&quot;:null}" fill="#b42e17" stroke="none" stroke-width="0" stroke-linecap="butt"/><path d="M309.77887,163.54841c-2.30104,1.51074 2.40853,-6.04031 1.2499,-10.40272c-1.31289,-4.94318 -6.19349,-8.95771 -4.97961,-8.76308c1.21616,0.195 8.25025,0.96935 10.03476,5.05871c1.56851,3.5944 0.94495,9.34425 -1.44392,10.91264z" fill="#fcb5b5" stroke="none" stroke-width="0" stroke-linecap="butt"/><path d="M320.11427,192.8598c-0.98447,2.95684 -3.61264,6.35625 -6.6735,8.32399c-4.44253,2.85598 -9.90582,4.03489 -9.59973,3.73554c0.82264,-0.80453 9.55962,-8.25863 10.04476,-14.44101c0.7831,-9.97916 -7.61109,-19.01735 -6.19027,-17.4357c0,0 3.00709,0.70259 5.68102,3.9031c4.05908,4.85844 7.83958,12.60463 6.73772,15.91407z" data-paper-data="{&quot;index&quot;:null}" fill="#fcb5b5" stroke="none" stroke-width="0" stroke-linecap="butt"/><path d="M351.55358,164.21976c2.05469,1.1024 0.85731,5.43701 0.90119,5.92543c0.0537,0.5978 -5.23561,-0.05016 -7.17127,-0.93238c-2.89071,-1.31751 -2.81876,-3.33727 -2.61829,-3.95604c0.18872,-0.58248 6.2439,-2.45585 8.88837,-1.03701z" data-paper-data="{&quot;index&quot;:null}" fill="#fcb5b5" stroke="none" stroke-width="0" stroke-linecap="butt"/><path d="M355.3024,193.21976c1.3483,1.1024 0.56257,5.43701 0.59136,5.92543c0.03524,0.5978 -3.43563,-0.05016 -4.7058,-0.93238c-1.89689,-1.31751 -1.84968,-3.33727 -1.71813,-3.95604c0.12384,-0.58248 4.09726,-2.45585 5.83257,-1.03701z" data-paper-data="{&quot;index&quot;:null}" fill="#fcb5b5" stroke="none" stroke-width="0" stroke-linecap="butt"/></g></g></svg>